<svg xmlns="http://www.w3.org/2000/svg" viewBox="0 0 96 96" role="img" aria-label="Bluesky icon">
  <rect x="8" y="8" width="80" height="80" rx="24" fill="#0ea5e9"/>
  <path fill="#fff" d="M31.2 31.8c6.7 4.7 13.9 14.2 16.8 20.2 2.9-6 10.1-15.5 16.8-20.2 4.8-3.4 12.6-6 12.6 2.8 0 1.8-1 14.8-1.7 16.9-2.6 7.3-11.9 9.2-20.1 7.8 14.4 2.4 18.1 10.4 10.2 18.4-15 15.3-21.5-3.8-23.2-8.7-.3-.9-.4-1.3-.6-1.3s-.3.4-.6 1.3c-1.7 4.9-8.2 24-23.2 8.7-7.9-8-4.2-16 10.2-18.4-8.2 1.4-17.5-.5-20.1-7.8-.7-2.1-1.7-15.1-1.7-16.9 0-8.8 7.8-6.2 12.6-2.8Z"/>
</svg>
