<svg xmlns="http://www.w3.org/2000/svg" viewBox="0 0 96 96" role="img" aria-label="Facebook icon">
  <path fill="#1877F2" d="M16 30c0-7.7 6.3-14 14-14h16c0-8.8 7.2-16 16-16h12v22h-9c-4.4 0-8 3.6-8 8v8h17l-3 18H57v40H30V56H16V38h14v-8Z"/>
  <path fill="#FFF" d="M57 56h14l3-18H57v-8c0-4.4 3.6-8 8-8h9V0H62c-8.8 0-16 7.2-16 16H30c-7.7 0-14 6.3-14 14v8h14v18H16v40h41V56Z" opacity=".17"/>
  <path fill="#fff" d="M57 56h14l3-18H57v-8c0-4.4 3.6-8 8-8h9V0H62c-8.8 0-16 7.2-16 16H30c-7.7 0-14 6.3-14 14v8h14v18H16v40h41V56Z"/>
</svg>
