<svg xmlns="http://www.w3.org/2000/svg" viewBox="0 0 96 96" role="img" aria-label="Instagram icon">
  <defs>
    <linearGradient id="ig" x1="8" x2="88" y1="88" y2="8" gradientUnits="userSpaceOnUse">
      <stop offset="0" stop-color="#f58529"/><stop offset="0.5" stop-color="#dd2a7b"/><stop offset="1" stop-color="#8134af"/>
    </linearGradient>
  </defs>
  <rect x="8" y="8" width="80" height="80" rx="22" fill="url(#ig)"/>
  <path fill="#fff" d="M48 30a18 18 0 1 0 0 36 18 18 0 0 0 0-36Zm0 30a12 12 0 1 1 0-24 12 12 0 0 1 0 24Zm20-31a4.5 4.5 0 1 0 0 9 4.5 4.5 0 0 0 0-9Z"/>
  <path fill="#fff" d="M24 40c0-8.8 7.2-16 16-16h4c0-5.5 4.5-10 10-10s10 4.5 10 10h8c8.8 0 16 7.2 16 16v32H56c0-5.5-4.5-10-10-10s-10 4.5-10 10H24V40Z" opacity=".12"/>
</svg>
