<svg xmlns="http://www.w3.org/2000/svg" viewBox="0 0 96 96" role="img" aria-label="Threads icon">
  <rect x="8" y="8" width="80" height="80" rx="24" fill="#111"/>
  <path fill="#fff" d="M58.7 39.5c-1.4-8.5-7.8-12.9-17.4-12.9-10.9 0-18.7 6.8-18.7 17.8 0 10.7 7.5 17.1 18.2 17.1 7.2 0 13.2-3 16.4-8.4.7-1.1 1.2-2.3 1.6-3.6 4.2-.5 7.6-2.4 9.6-5.5 2.7-4.4 2-11.3-3.8-16.1-2.6-2.2-6.3-3.8-10.8-4.7l-1 5.8c3.2.6 5.7 1.6 7.5 3 3.4 2.8 3.8 6.2 2.4 8.5-.8 1.2-2.1 2.1-3.8 2.6v-.4c0-1.1 0-2.2-.2-3.2Zm-5.2 9.7c-1.8 3.8-5.8 6-11.5 6-7.7 0-12.5-4.3-12.5-11 0-7.2 4.9-11.5 12-11.5 6.1 0 9.5 2.5 10.8 7.8.6 2.4.6 5.4.3 8.7-.4.1-.8.1-1.2.1h-.9l-.2 5.8h1.1c.4 0 .8 0 1.2-.1-.2 1.7-.5 3.4-.9 4.2Z"/>
</svg>
